<?xml version="1.0" encoding="UTF-8" standalone="no"?>
<!-- Created with Inkscape (http://www.inkscape.org/) -->

<svg
   xmlns:dc="http://purl.org/dc/elements/1.1/"
   xmlns:cc="http://creativecommons.org/ns#"
   xmlns:rdf="http://www.w3.org/1999/02/22-rdf-syntax-ns#"
   xmlns:svg="http://www.w3.org/2000/svg"
   xmlns="http://www.w3.org/2000/svg"
   xmlns:sodipodi="http://sodipodi.sourceforge.net/DTD/sodipodi-0.dtd"
   xmlns:inkscape="http://www.inkscape.org/namespaces/inkscape"
   width="64px"
   height="64px"
   id="svg2985"
   version="1.1"
   inkscape:version="0.48.5 r10040"
   inkscape:export-filename="D:\Users\RaV\Desktop\arrow-right.png"
   inkscape:export-xdpi="33.86842"
   inkscape:export-ydpi="33.86842"
   sodipodi:docname="Nowy dokument 2">
  <defs
     id="defs2987" />
  <sodipodi:namedview
     id="base"
     pagecolor="#ffffff"
     bordercolor="#666666"
     borderopacity="1.0"
     inkscape:pageopacity="0.0"
     inkscape:pageshadow="2"
     inkscape:zoom="5.5"
     inkscape:cx="-2.1818182"
     inkscape:cy="32"
     inkscape:current-layer="layer1"
     showgrid="true"
     inkscape:document-units="px"
     inkscape:grid-bbox="true"
     inkscape:window-width="1920"
     inkscape:window-height="1178"
     inkscape:window-x="1912"
     inkscape:window-y="-8"
     inkscape:window-maximized="1" />
  <metadata
     id="metadata2990">
    <rdf:RDF>
      <cc:Work
         rdf:about="">
        <dc:format>image/svg+xml</dc:format>
        <dc:type
           rdf:resource="http://purl.org/dc/dcmitype/StillImage" />
        <dc:title></dc:title>
      </cc:Work>
    </rdf:RDF>
  </metadata>
  <g
     id="layer1"
     inkscape:label="Layer 1"
     inkscape:groupmode="layer">
    <g
       style="fill:#000000"
       id="g3787"
       transform="matrix(1.5918338,0,0,1.5918338,5.8935724,6.2068184)">
      <g
         id="g3777">
        <path
           id="path3779"
           d="m 15.272,31.458 c 0.168,0.186 0.33,0.306 0.486,0.39 0.002,0.002 0.006,0.002 0.008,0.004 0.108,0.056 0.214,0.098 0.314,0.098 0.1,0 0.206,-0.042 0.314,-0.098 0.002,-0.002 0.006,-0.002 0.008,-0.004 0.156,-0.084 0.318,-0.204 0.486,-0.39 0,0 9.296,-10.11 10.23,-18.87 0.056,-0.452 0.094,-0.91 0.094,-1.376 C 27.212,5.02 22.192,0 16,0 9.808,0 4.788,5.02 4.788,11.212 c 0,0.474 0.038,0.936 0.096,1.394 0.958,8.756 10.388,18.852 10.388,18.852 z M 16,4 c 3.976,0 7.212,3.236 7.212,7.212 0,3.976 -3.236,7.212 -7.212,7.212 -3.976,0 -7.212,-3.236 -7.212,-7.212 C 8.788,7.236 12.024,4 16,4 z"
           inkscape:connector-curvature="0" />
      </g>
    </g>
  </g>
</svg>
